<svg xmlns="http://www.w3.org/2000/svg" version="1.1" xmlns:xlink="http://www.w3.org/1999/xlink" xmlns:svgjs="http://svgjs.dev/svgjs" width="475" height="538"><svg viewBox="0 0 475 538" version="1.1" xmlns="http://www.w3.org/2000/svg" xmlns:xlink="http://www.w3.org/1999/xlink" xml:space="preserve" xmlns:serif="http://www.serif.com/" style="fill-rule:evenodd;clip-rule:evenodd;stroke-linejoin:round;stroke-miterlimit:2;">
    <g transform="matrix(1,0,0,1,-386.592,-1707.61)">
        <g transform="matrix(1,0,0,1,-1411.47,1351.07)">
            <g transform="matrix(3.53943,0,0,2.85598,-4256.46,-9670.05)">
                <path d="M1730.56,3597.19C1726,3591.64 1722.61,3585.67 1720.37,3579.29C1718.12,3572.91 1717,3565.9 1717,3558.26C1717,3544.2 1721.35,3532.76 1730.03,3523.95C1738.72,3515.14 1750.17,3510.74 1764.39,3510.74C1771.25,3510.74 1777.47,3511.78 1783.04,3513.86C1788.61,3515.94 1793.81,3519.11 1798.64,3523.37C1802.56,3519.11 1806.29,3516.05 1809.83,3514.18C1813.37,3512.32 1817.1,3511.39 1821.02,3511.39C1827.95,3511.39 1833.63,3513.79 1838.04,3518.61C1842.45,3523.43 1844.66,3529.7 1844.66,3537.43C1844.66,3543.16 1843.31,3547.8 1840.61,3551.36C1837.92,3554.92 1834.47,3556.7 1830.26,3556.7C1826.34,3556.7 1823.07,3555.24 1820.44,3552.34C1817.81,3549.43 1816.5,3545.89 1816.5,3541.72C1816.5,3538.25 1817.2,3535.19 1818.6,3532.54C1820,3529.9 1822,3527.88 1824.59,3526.49C1823.19,3525.53 1821.96,3524.82 1820.91,3524.34C1819.86,3523.86 1818.88,3523.62 1817.97,3523.62C1816.08,3523.62 1814.07,3524.36 1811.93,3525.84C1809.79,3527.31 1807.36,3529.79 1804.63,3533.26C1806.94,3537.08 1808.69,3541.44 1809.88,3546.35C1811.07,3551.25 1811.67,3556.57 1811.67,3562.3C1811.67,3576.62 1807.29,3588.06 1798.53,3596.61C1789.78,3605.16 1777.98,3609.43 1763.13,3609.43C1759.56,3609.43 1756,3609 1752.46,3608.13C1748.93,3607.26 1745.23,3605.92 1741.38,3604.09C1739.28,3605.57 1737.77,3607.05 1736.86,3608.52C1735.95,3610 1735.5,3611.73 1735.5,3613.73C1735.5,3616.85 1736.74,3619 1739.22,3620.18C1741.71,3621.35 1747.65,3621.93 1757.03,3621.93L1759.87,3621.93C1762.74,3621.93 1767.43,3621.85 1773.95,3621.67C1780.46,3621.5 1785.58,3621.41 1789.29,3621.41C1801.2,3621.41 1810.42,3624.49 1816.97,3630.66C1823.52,3636.82 1826.8,3645.41 1826.8,3656.44C1826.8,3670.76 1821.74,3681.44 1811.62,3688.47C1801.49,3695.5 1786.1,3699.02 1765.44,3699.02C1746.88,3699.02 1733.1,3696.67 1724.1,3691.99C1715.09,3687.3 1710.59,3680.05 1710.59,3670.24C1710.59,3664.95 1712.19,3660.5 1715.38,3656.89C1718.56,3653.29 1723.34,3650.53 1729.72,3648.62C1723.97,3646.11 1719.7,3642.74 1716.9,3638.53C1714.1,3634.32 1712.69,3629.18 1712.69,3623.1C1712.69,3617.29 1714.13,3612.3 1717,3608.13C1719.88,3603.96 1724.39,3600.32 1730.56,3597.19ZM1735.29,3667.9C1735.29,3673.1 1737.82,3676.79 1742.9,3678.96C1747.98,3681.13 1756.79,3682.22 1769.33,3682.22C1780.32,3682.22 1788.38,3681.03 1793.49,3678.64C1798.6,3676.25 1801.16,3672.5 1801.16,3667.38C1801.16,3662.34 1798.85,3658.8 1794.23,3656.76C1789.6,3654.72 1781.37,3653.7 1769.54,3653.7C1755.39,3653.7 1746.14,3654.68 1741.8,3656.63C1737.46,3658.59 1735.29,3662.34 1735.29,3667.9ZM1767.5,3592.83C1767.5,3592.83 1770.66,3595.15 1771.54,3591.33C1765.53,3580.61 1762.85,3565.84 1767.78,3556.74C1774.38,3562.07 1785.68,3555.78 1788.23,3554.31C1790.77,3552.84 1802.4,3540.43 1795.95,3532.81C1790.63,3528.53 1784.03,3530.08 1773,3539.42C1761.1,3550.34 1766.54,3554.89 1766.01,3555.29C1765.48,3555.7 1764.73,3558.83 1764.73,3558.83C1764.3,3557.1 1764.24,3557.16 1763.96,3556.72C1765.54,3552.38 1762.75,3548.28 1762.47,3548.09C1762.18,3547.89 1762.24,3548.93 1761.81,3548.56C1761.38,3548.19 1760.95,3543.32 1760.41,3543.72C1759.88,3544.1 1760.07,3545.1 1760.44,3548.14C1760.48,3548.5 1760.31,3548.68 1760.31,3549.12C1760.27,3554.2 1763,3556.4 1763,3556.4C1763.3,3558.25 1763.44,3559.48 1763.28,3559.54C1763.28,3559.54 1762.21,3555.85 1760.65,3555.01C1755.36,3537.23 1723.72,3537.03 1722.88,3549.26C1725.39,3560.78 1747.7,3560.03 1751.46,3560C1754.34,3559.97 1758.73,3558.38 1760.01,3557.07C1760.01,3557.07 1760.56,3558.04 1760.9,3558.48C1761.12,3559.87 1761.29,3562.06 1761.29,3562.06C1761.01,3574.03 1763.28,3584.14 1767.5,3592.83Z" style="fill:rgb(17,87,64);"></path>
            </g>
        </g>
    </g>
</svg><style>@media (prefers-color-scheme: light) { :root { filter: none; } }
@media (prefers-color-scheme: dark) { :root { filter: none; } }
</style></svg>